<mxfile host="65bd71144e">
    <diagram id="BchvI7WIYb1rJNrYavdt" name="第1頁">
        <mxGraphModel dx="322" dy="536" grid="1" gridSize="10" guides="1" tooltips="1" connect="1" arrows="1" fold="1" page="1" pageScale="1" pageWidth="827" pageHeight="1169" math="0" shadow="0">
            <root>
                <mxCell id="0"/>
                <mxCell id="1" parent="0"/>
                <mxCell id="xH3545I4g3LHh9CMYio_-14" style="edgeStyle=none;html=1;exitX=1;exitY=0.3333333333333333;exitDx=0;exitDy=0;exitPerimeter=0;" edge="1" parent="1" source="2" target="xH3545I4g3LHh9CMYio_-9">
                    <mxGeometry relative="1" as="geometry"/>
                </mxCell>
                <mxCell id="xH3545I4g3LHh9CMYio_-27" style="edgeStyle=none;html=1;exitX=1;exitY=0.3333333333333333;exitDx=0;exitDy=0;exitPerimeter=0;entryX=0;entryY=0.5;entryDx=0;entryDy=0;" edge="1" parent="1" source="2" target="xH3545I4g3LHh9CMYio_-25">
                    <mxGeometry relative="1" as="geometry"/>
                </mxCell>
                <mxCell id="2" value="住戶" style="shape=umlActor;verticalLabelPosition=bottom;verticalAlign=top;html=1;" vertex="1" parent="1">
                    <mxGeometry x="100" y="150" width="30" height="60" as="geometry"/>
                </mxCell>
                <mxCell id="xH3545I4g3LHh9CMYio_-13" style="edgeStyle=none;html=1;exitX=1;exitY=0.5;exitDx=0;exitDy=0;entryX=0;entryY=0.5;entryDx=0;entryDy=0;" edge="1" parent="1" source="xH3545I4g3LHh9CMYio_-9" target="xH3545I4g3LHh9CMYio_-12">
                    <mxGeometry relative="1" as="geometry"/>
                </mxCell>
                <mxCell id="xH3545I4g3LHh9CMYio_-9" value="建立住戶個人資料" style="ellipse;whiteSpace=wrap;html=1;strokeColor=#faf5f5;" vertex="1" parent="1">
                    <mxGeometry x="310" y="145" width="140" height="70" as="geometry"/>
                </mxCell>
                <mxCell id="xH3545I4g3LHh9CMYio_-28" style="edgeStyle=none;html=1;exitX=1;exitY=0.3333333333333333;exitDx=0;exitDy=0;exitPerimeter=0;entryX=0;entryY=0.5;entryDx=0;entryDy=0;" edge="1" parent="1" source="xH3545I4g3LHh9CMYio_-10" target="xH3545I4g3LHh9CMYio_-25">
                    <mxGeometry relative="1" as="geometry"/>
                </mxCell>
                <mxCell id="xH3545I4g3LHh9CMYio_-10" value="警衛" style="shape=umlActor;verticalLabelPosition=bottom;verticalAlign=top;html=1;strokeColor=#faf5f5;" vertex="1" parent="1">
                    <mxGeometry x="100" y="260" width="30" height="60" as="geometry"/>
                </mxCell>
                <mxCell id="xH3545I4g3LHh9CMYio_-35" style="edgeStyle=none;html=1;exitX=0;exitY=0.3333333333333333;exitDx=0;exitDy=0;exitPerimeter=0;entryX=1;entryY=0.5;entryDx=0;entryDy=0;" edge="1" parent="1" source="xH3545I4g3LHh9CMYio_-11" target="xH3545I4g3LHh9CMYio_-25">
                    <mxGeometry relative="1" as="geometry"/>
                </mxCell>
                <mxCell id="xH3545I4g3LHh9CMYio_-11" value="委員" style="shape=umlActor;verticalLabelPosition=bottom;verticalAlign=top;html=1;strokeColor=#faf5f5;" vertex="1" parent="1">
                    <mxGeometry x="100" y="370" width="30" height="60" as="geometry"/>
                </mxCell>
                <mxCell id="xH3545I4g3LHh9CMYio_-12" value="app" style="html=1;strokeColor=#faf5f5;" vertex="1" parent="1">
                    <mxGeometry x="530" y="140" width="110" height="50" as="geometry"/>
                </mxCell>
                <mxCell id="xH3545I4g3LHh9CMYio_-24" value="" style="ellipse;whiteSpace=wrap;html=1;strokeColor=#faf5f5;" vertex="1" parent="1">
                    <mxGeometry x="310" y="250" width="140" height="70" as="geometry"/>
                </mxCell>
                <mxCell id="xH3545I4g3LHh9CMYio_-34" style="edgeStyle=none;html=1;exitX=1;exitY=0.5;exitDx=0;exitDy=0;entryX=0;entryY=0.5;entryDx=0;entryDy=0;" edge="1" parent="1" source="xH3545I4g3LHh9CMYio_-25" target="xH3545I4g3LHh9CMYio_-26">
                    <mxGeometry relative="1" as="geometry"/>
                </mxCell>
                <mxCell id="xH3545I4g3LHh9CMYio_-25" value="發表文章回應" style="ellipse;whiteSpace=wrap;html=1;strokeColor=#faf5f5;" vertex="1" parent="1">
                    <mxGeometry x="310" y="350" width="140" height="70" as="geometry"/>
                </mxCell>
                <mxCell id="xH3545I4g3LHh9CMYio_-26" value="論壇" style="html=1;strokeColor=#faf5f5;" vertex="1" parent="1">
                    <mxGeometry x="550" y="360" width="110" height="50" as="geometry"/>
                </mxCell>
                <mxCell id="xH3545I4g3LHh9CMYio_-37" value="" style="shape=umlFrame;whiteSpace=wrap;html=1;strokeColor=#faf5f5;width=10;height=15;" vertex="1" parent="1">
                    <mxGeometry x="245" y="110" width="270" height="360" as="geometry"/>
                </mxCell>
            </root>
        </mxGraphModel>
    </diagram>
    <diagram id="K9zHgCDeChMkdOZh3MnY" name="第2頁">
        <mxGraphModel dx="322" dy="536" grid="1" gridSize="10" guides="1" tooltips="1" connect="1" arrows="1" fold="1" page="1" pageScale="1" pageWidth="827" pageHeight="1169" math="0" shadow="0">
            <root>
                <mxCell id="0"/>
                <mxCell id="1" parent="0"/>
                <mxCell id="n138MXlWZWG3a1oo2ABP-4" value="security guard" style="swimlane;fontStyle=0;childLayout=stackLayout;horizontal=1;startSize=26;fillColor=none;horizontalStack=0;resizeParent=1;resizeParentMax=0;resizeLast=0;collapsible=1;marginBottom=0;strokeColor=#faf5f5;" vertex="1" parent="1">
                    <mxGeometry x="100" y="210" width="140" height="78" as="geometry"/>
                </mxCell>
                <mxCell id="n138MXlWZWG3a1oo2ABP-5" value="sign for" style="text;strokeColor=none;fillColor=none;align=left;verticalAlign=top;spacingLeft=4;spacingRight=4;overflow=hidden;rotatable=0;points=[[0,0.5],[1,0.5]];portConstraint=eastwest;" vertex="1" parent="n138MXlWZWG3a1oo2ABP-4">
                    <mxGeometry y="26" width="140" height="26" as="geometry"/>
                </mxCell>
                <mxCell id="n138MXlWZWG3a1oo2ABP-7" value="+ field: type" style="text;strokeColor=none;fillColor=none;align=left;verticalAlign=top;spacingLeft=4;spacingRight=4;overflow=hidden;rotatable=0;points=[[0,0.5],[1,0.5]];portConstraint=eastwest;" vertex="1" parent="n138MXlWZWG3a1oo2ABP-4">
                    <mxGeometry y="52" width="140" height="26" as="geometry"/>
                </mxCell>
                <mxCell id="n138MXlWZWG3a1oo2ABP-8" value="tenant" style="swimlane;fontStyle=1;align=center;verticalAlign=top;childLayout=stackLayout;horizontal=1;startSize=26;horizontalStack=0;resizeParent=1;resizeParentMax=0;resizeLast=0;collapsible=1;marginBottom=0;strokeColor=#faf5f5;" vertex="1" parent="1">
                    <mxGeometry x="300" y="330" width="160" height="86" as="geometry"/>
                </mxCell>
                <mxCell id="n138MXlWZWG3a1oo2ABP-9" value="join in app" style="text;strokeColor=none;fillColor=none;align=left;verticalAlign=top;spacingLeft=4;spacingRight=4;overflow=hidden;rotatable=0;points=[[0,0.5],[1,0.5]];portConstraint=eastwest;" vertex="1" parent="n138MXlWZWG3a1oo2ABP-8">
                    <mxGeometry y="26" width="160" height="26" as="geometry"/>
                </mxCell>
                <mxCell id="n138MXlWZWG3a1oo2ABP-10" value="" style="line;strokeWidth=1;fillColor=none;align=left;verticalAlign=middle;spacingTop=-1;spacingLeft=3;spacingRight=3;rotatable=0;labelPosition=right;points=[];portConstraint=eastwest;strokeColor=inherit;" vertex="1" parent="n138MXlWZWG3a1oo2ABP-8">
                    <mxGeometry y="52" width="160" height="8" as="geometry"/>
                </mxCell>
                <mxCell id="n138MXlWZWG3a1oo2ABP-11" value="pick up the goods" style="text;strokeColor=none;fillColor=none;align=left;verticalAlign=top;spacingLeft=4;spacingRight=4;overflow=hidden;rotatable=0;points=[[0,0.5],[1,0.5]];portConstraint=eastwest;" vertex="1" parent="n138MXlWZWG3a1oo2ABP-8">
                    <mxGeometry y="60" width="160" height="26" as="geometry"/>
                </mxCell>
                <mxCell id="n138MXlWZWG3a1oo2ABP-12" value="committee member" style="swimlane;fontStyle=1;align=center;verticalAlign=top;childLayout=stackLayout;horizontal=1;startSize=26;horizontalStack=0;resizeParent=1;resizeParentMax=0;resizeLast=0;collapsible=1;marginBottom=0;strokeColor=#faf5f5;" vertex="1" parent="1">
                    <mxGeometry x="570" y="210" width="160" height="60" as="geometry"/>
                </mxCell>
                <mxCell id="n138MXlWZWG3a1oo2ABP-13" value="publish an article" style="text;strokeColor=none;fillColor=none;align=left;verticalAlign=top;spacingLeft=4;spacingRight=4;overflow=hidden;rotatable=0;points=[[0,0.5],[1,0.5]];portConstraint=eastwest;" vertex="1" parent="n138MXlWZWG3a1oo2ABP-12">
                    <mxGeometry y="26" width="160" height="26" as="geometry"/>
                </mxCell>
                <mxCell id="n138MXlWZWG3a1oo2ABP-14" value="" style="line;strokeWidth=1;fillColor=none;align=left;verticalAlign=middle;spacingTop=-1;spacingLeft=3;spacingRight=3;rotatable=0;labelPosition=right;points=[];portConstraint=eastwest;strokeColor=inherit;" vertex="1" parent="n138MXlWZWG3a1oo2ABP-12">
                    <mxGeometry y="52" width="160" height="8" as="geometry"/>
                </mxCell>
                <mxCell id="n138MXlWZWG3a1oo2ABP-16" style="edgeStyle=none;html=1;exitX=1;exitY=0.5;exitDx=0;exitDy=0;entryX=0;entryY=0.5;entryDx=0;entryDy=0;" edge="1" parent="1" source="n138MXlWZWG3a1oo2ABP-5" target="n138MXlWZWG3a1oo2ABP-8">
                    <mxGeometry relative="1" as="geometry"/>
                </mxCell>
            </root>
        </mxGraphModel>
    </diagram>
</mxfile>